<svg xmlns="http://www.w3.org/2000/svg" version="1.1" xmlns:xlink="http://www.w3.org/1999/xlink" xmlns:svgjs="http://svgjs.dev/svgjs" width="1500" height="1012" viewBox="0 0 1500 1012"><g transform="matrix(1,0,0,1,-0.021182071861289842,-7.743792010348443)"><svg viewBox="0 0 369 249" data-background-color="#ffffff" preserveAspectRatio="xMidYMid meet" height="1012" width="1500" xmlns="http://www.w3.org/2000/svg" xmlns:xlink="http://www.w3.org/1999/xlink"><g id="tight-bounds" transform="matrix(1,0,0,1,0.005210789677875027,1.905340129028417)"><svg viewBox="0 0 368.98957842064425 247.2" height="247.2" width="368.98957842064425"><g><svg viewBox="0 0 395.52 264.9737274924885" height="247.2" width="368.98957842064425"><g transform="matrix(1,0,0,1,0,159.3782391899346)"><svg viewBox="0 0 395.52 105.59548830255387" height="105.59548830255387" width="395.52"><g id="textblocktransform"><svg viewBox="0 0 395.52 105.59548830255387" height="105.59548830255387" width="395.52" id="textblock"><g><svg viewBox="0 0 395.52 56.95316065930085" height="56.95316065930085" width="395.52"><g transform="matrix(1,0,0,1,0,0)"><svg width="395.52" viewBox="2.54 -37.94 268.39 38.82" height="56.95316065930085" data-palette-color="#096a2e"><g class="wordmark-text-0" data-fill-palette-color="primary" id="text-0"><path d="M2.54-18.26L2.54-18.26Q2.54-27.2 6.88-32.32 11.23-37.45 18.16-37.45L18.16-37.45Q22.46-37.45 25.46-35.08 28.47-32.71 29.98-29.44L29.98-29.44 26.66-28.27Q23.39-34.13 18.07-34.13L18.07-34.13Q12.79-34.13 9.67-29.81 6.54-25.49 6.54-18.26L6.54-18.26Q6.54-10.94 9.72-6.71 12.89-2.49 18.07-2.49L18.07-2.49Q21.34-2.49 23.78-4.32 26.22-6.15 27.44-8.84L27.44-8.84 30.96-7.71Q29.3-4.15 26.12-1.64 22.95 0.88 18.16 0.88L18.16 0.88Q11.28 0.88 6.91-4.22 2.54-9.33 2.54-18.26ZM40.52 0L36.81 0 36.81-37.94 40.52-37.94 40.52 0ZM54.1-32.18L49.31-32.18 49.31-37.11 54.1-37.11 54.1-32.18ZM53.61 0L49.9 0 49.9-26.27 53.61-26.27 53.61 0ZM66.15 0L62.35 0 62.35-26.27 66.06-26.27 66.06-21.78 66.11-21.78Q66.69-23.73 68.99-25.44 71.28-27.15 74.46-27.15L74.46-27.15Q78.12-27.15 80.49-24.85 82.85-22.56 82.85-16.99L82.85-16.99 82.85 0 79.05 0 79.05-16.36Q79.05-23.97 73.58-23.97L73.58-23.97Q70.55-23.97 68.35-21.53 66.15-19.09 66.15-15.67L66.15-15.67 66.15 0ZM95.55-32.18L90.76-32.18 90.76-37.11 95.55-37.11 95.55-32.18ZM95.06 0L91.35 0 91.35-26.27 95.06-26.27 95.06 0ZM102.04-13.13L102.04-13.13Q102.04-19.38 105.21-23.27 108.39-27.15 113.76-27.15L113.76-27.15Q117.27-27.15 119.79-25.12 122.3-23.1 123.13-20.31L123.13-20.31 119.91-19.38Q119.18-21.34 117.54-22.66 115.91-23.97 113.76-23.97L113.76-23.97Q110.14-23.97 108-20.9 105.85-17.82 105.85-13.13L105.85-13.13Q105.85-8.15 108.09-5.22 110.34-2.29 113.76-2.29L113.76-2.29Q116.05-2.29 117.93-3.78 119.81-5.27 120.59-7.23L120.59-7.23 123.82-6.2Q122.79-3.27 120.08-1.2 117.37 0.88 113.76 0.88L113.76 0.88Q108.53 0.88 105.29-2.93 102.04-6.74 102.04-13.13Z" fill="#096a2e" data-fill-palette-color="primary"></path><path d="M156.34 0L141.1 0 141.1-36.57 154.58-36.57Q159.9-36.57 162.66-34.03 165.42-31.49 165.42-27.2L165.42-27.2Q165.42-24.27 163.93-22.24 162.44-20.21 160.15-19.19L160.15-19.19Q162.93-18.36 164.86-15.97 166.79-13.57 166.79-10.21L166.79-10.21Q166.79-6.01 164.03-3 161.27 0 156.34 0L156.34 0ZM145.01-17.19L145.01-3.32 155.36-3.32Q158.53-3.32 160.66-5.15 162.78-6.98 162.78-10.16L162.78-10.16Q162.78-13.18 160.71-15.19 158.63-17.19 155.17-17.19L155.17-17.19 145.01-17.19ZM145.01-33.25L145.01-20.46 153.9-20.46Q157.17-20.46 159.29-22.07 161.42-23.68 161.42-26.9L161.42-26.9Q161.42-29.74 159.68-31.49 157.95-33.25 154.09-33.25L154.09-33.25 145.01-33.25ZM175.08-6.74L175.08-6.74Q175.08-4.88 176.65-3.59 178.21-2.29 180.94-2.29L180.94-2.29Q184.41-2.29 186.88-4.54 189.34-6.79 189.34-10.25L189.34-10.25 189.34-13.92Q187.19-13.38 182.51-12.65L182.51-12.65Q178.7-11.96 176.89-10.55 175.08-9.13 175.08-6.74ZM171.28-6.45L171.28-6.45Q171.28-13.77 182.6-15.53L182.6-15.53Q187.68-16.36 189.34-16.89L189.34-16.89 189.34-18.41Q189.34-20.85 187.58-22.46 185.83-24.07 182.6-24.07L182.6-24.07Q180.26-24.07 178.09-22.97 175.91-21.88 174.4-20.02L174.4-20.02 171.96-22.07Q173.91-24.32 176.67-25.73 179.43-27.15 182.51-27.15L182.51-27.15Q193.05-27.15 193.05-16.85L193.05-16.85 193.05 0 189.44 0 189.44-4.3Q188.66-2.2 186.22-0.66 183.78 0.88 180.46 0.88L180.46 0.88Q176.11 0.88 173.69-1.17 171.28-3.22 171.28-6.45ZM204.62 0L200.91 0 200.91-37.94 204.62-37.94 204.62-22.02 204.72-22.02Q205.7-24.12 207.87-25.63 210.04-27.15 212.83-27.15L212.83-27.15Q221.32-27.15 221.32-16.99L221.32-16.99 221.32 0 217.61 0 217.61-16.36Q217.61-23.97 212.14-23.97L212.14-23.97Q209.12-23.97 206.87-21.48 204.62-18.99 204.62-15.58L204.62-15.58 204.62 0ZM230.84-6.74L230.84-6.74Q230.84-4.88 232.4-3.59 233.97-2.29 236.7-2.29L236.7-2.29Q240.17-2.29 242.63-4.54 245.1-6.79 245.1-10.25L245.1-10.25 245.1-13.92Q242.95-13.38 238.26-12.65L238.26-12.65Q234.45-11.96 232.65-10.55 230.84-9.13 230.84-6.74ZM227.03-6.45L227.03-6.45Q227.03-13.77 238.36-15.53L238.36-15.53Q243.44-16.36 245.1-16.89L245.1-16.89 245.1-18.41Q245.1-20.85 243.34-22.46 241.58-24.07 238.36-24.07L238.36-24.07Q236.02-24.07 233.84-22.97 231.67-21.88 230.16-20.02L230.16-20.02 227.72-22.07Q229.67-24.32 232.43-25.73 235.19-27.15 238.26-27.15L238.26-27.15Q248.81-27.15 248.81-16.85L248.81-16.85 248.81 0 245.2 0 245.2-4.3Q244.42-2.2 241.97-0.66 239.53 0.88 236.21 0.88L236.21 0.88Q231.87 0.88 229.45-1.17 227.03-3.22 227.03-6.45ZM260.18 0L256.38 0 256.38-26.27 259.99-26.27 259.99-22.46Q260.77-24.22 262.58-25.68 264.38-27.15 267.22-27.15L267.22-27.15Q269.32-27.15 270.93-26.46L270.93-26.46 270.93-23.05Q269.17-23.73 267.22-23.73L267.22-23.73Q263.9-23.73 262.04-21.24 260.18-18.75 260.18-14.65L260.18-14.65 260.18 0Z" fill="#3c3c3c" data-fill-palette-color="secondary"></path></g></svg></g></svg></g><g transform="matrix(1,0,0,1,96.78447147456359,70.39843501510596)"><svg viewBox="0 0 201.9510570508728 35.19705328744792" height="35.19705328744792" width="201.9510570508728"><g transform="matrix(1,0,0,1,0,0)"><svg width="201.9510570508728" viewBox="1.9981481481481478 -40 262.47185185185185 45.75" height="35.19705328744792" data-palette-color="#3c3c3c"><path d="M18.4-3.25L18.4-3.25Q15.05-3.25 12.1-4.5 9.15-5.75 6.9-8.08 4.65-10.4 3.35-13.65 2.05-16.9 2-20.9L2-20.9Q1.95-24.9 3.25-28.3 4.55-31.7 6.95-34.2 9.35-36.7 12.6-38.1 15.85-39.5 19.75-39.5L19.75-39.5Q21.85-39.5 24.3-38.98 26.75-38.45 28.55-37.3L28.55-37.3 30.1-37.2Q30.55-37.15 30.7-36.9 30.85-36.65 30.85-36.4L30.85-36.4 31.4-29.65Q30.55-29.4 30.1-29.4L30.1-29.4Q29.4-29.4 29.2-30.05L29.2-30.05 28.6-31.95Q28.4-32.6 27.8-33.68 27.2-34.75 25.4-35.7L25.4-35.7Q24.1-36.4 22.38-36.7 20.65-37 19.05-37L19.05-37Q14.7-37 11.55-35.08 8.4-33.15 6.7-29.73 5-26.3 5-21.85L5-21.85Q5-17.05 6.9-13.48 8.8-9.9 12.18-7.95 15.55-6 19.9-6L19.9-6Q20.75-6 22.25-6.13 23.75-6.25 25.45-6.63 27.15-7 28.6-7.8L28.6-7.8 28.6-15.6Q28.6-17.65 27.53-18.38 26.45-19.1 23.5-19.1L23.5-19.1Q23.5-19.35 23.55-19.75 23.6-20.15 23.65-20.4L23.65-20.4Q23.8-20.95 24.03-21.03 24.25-21.1 24.3-21.1L24.3-21.1 34.5-21.1Q35-21.1 35-20.6L35-20.6Q35-20.4 34.9-20.03 34.8-19.65 34.6-19.35L34.6-19.35Q32.9-19.1 32.25-18.23 31.6-17.35 31.6-15.6L31.6-15.6 31.6-7.35Q30.15-5.85 27.8-4.95 25.45-4.05 22.93-3.65 20.4-3.25 18.4-3.25ZM48.1-3.25L48.1-3.25Q44.95-3.25 43.07-5.15 41.2-7.05 41.2-11.1L41.2-11.1 41.25-22.75Q41.25-23.75 41.07-24.23 40.9-24.7 40.05-24.75L40.05-24.75 38.1-24.95Q37.75-24.95 37.75-25.35L37.75-25.35Q37.75-26.1 38.25-26.7L38.25-26.7Q39.05-26.95 40.37-27.1 41.7-27.25 42.6-27.25L42.6-27.25Q43.7-27.25 44.02-26.73 44.35-26.2 44.25-25L44.25-25Q44.15-23.65 44.05-21.18 43.95-18.7 43.95-16.05L43.95-16.05Q43.95-14.9 43.97-13.73 44-12.55 44.05-11.4L44.05-11.4Q44.25-8.65 45.6-7.28 46.95-5.9 49.1-5.85L49.1-5.85Q50.95-5.8 52.9-6.88 54.85-7.95 56.05-9.7L56.05-9.7Q56.25-12.85 56.32-16.35 56.4-19.85 56.4-22.6L56.4-22.6Q56.4-23.6 56.15-24.08 55.9-24.55 55.05-24.6L55.05-24.6 53.35-24.65Q53-24.65 53-25.05L53-25.05Q53-25.8 53.5-26.4L53.5-26.4Q54.35-26.65 55.57-26.88 56.8-27.1 57.75-27.1L57.75-27.1Q59.5-27.1 59.35-25L59.35-25Q59.25-23.45 59.15-21.18 59.05-18.9 58.97-16.35 58.9-13.8 58.85-11.48 58.8-9.15 58.8-7.55L58.8-7.55Q58.75-6.7 59.1-6.4 59.45-6.1 60.05-6.15L60.05-6.15 62.45-6.3Q62.75-6.3 62.75-5.95L62.75-5.95Q62.75-5.7 62.62-5.2 62.5-4.7 62.25-4.45L62.25-4.45Q61.6-4.1 60.25-3.78 58.9-3.45 58.05-3.5L58.05-3.5Q57.2-3.55 56.65-4.58 56.1-5.6 56-7L56-7Q54.5-5.3 52.4-4.28 50.3-3.25 48.1-3.25ZM45.9-32.75L45.9-32.75Q44.8-32.75 44.02-33.5 43.25-34.25 43.25-35.3L43.25-35.3Q43.25-36.45 44.02-37.23 44.8-38 45.9-38L45.9-38Q47.05-38 47.77-37.23 48.5-36.45 48.5-35.3L48.5-35.3Q48.5-34.25 47.77-33.5 47.05-32.75 45.9-32.75ZM54.65-32.75L54.65-32.75Q53.55-32.75 52.77-33.5 52-34.25 52-35.3L52-35.3Q52-36.45 52.77-37.23 53.55-38 54.65-38L54.65-38Q55.8-38 56.52-37.23 57.25-36.45 57.25-35.3L57.25-35.3Q57.25-34.25 56.52-33.5 55.8-32.75 54.65-32.75ZM74.95-4L65.25-4Q64.75-4 64.75-4.5L64.75-4.5Q64.75-4.7 64.8-5.08 64.84-5.45 65.05-5.75L65.05-5.75Q66.75-5.9 67.72-6.6 68.7-7.3 68.8-8.95L68.8-8.95Q68.9-10.1 68.95-12.58 69-15.05 69.07-18.25 69.15-21.45 69.17-24.7 69.2-27.95 69.2-30.6L69.2-30.6Q69.2-32.45 69.17-33.83 69.15-35.2 69.09-35.75L69.09-35.75Q69.05-36.65 68.72-36.98 68.4-37.3 67.59-37.4L67.59-37.4 65.55-37.6Q65.2-37.6 65.2-38L65.2-38Q65.2-38.3 65.34-38.7 65.5-39.1 65.7-39.35L65.7-39.35Q66.65-39.65 67.9-39.83 69.15-40 70.09-40L70.09-40Q71.25-40 71.92-39.68 72.59-39.35 72.4-38.05L72.4-38.05Q72.2-36.7 72.07-34.18 71.95-31.65 71.87-28.5 71.8-25.35 71.77-22.05 71.75-18.75 71.75-15.75L71.75-15.75Q71.75-13.15 71.77-11.08 71.8-9 71.84-7.85L71.84-7.85Q71.9-6.95 72.27-6.58 72.65-6.2 73.25-6.1L73.25-6.1Q73.65-6.05 74.45-6.03 75.25-6 75.75-6L75.75-6Q75.75-5.75 75.72-5.35 75.7-4.95 75.59-4.7L75.59-4.7Q75.45-4.2 75.25-4.1 75.05-4 74.95-4L74.95-4ZM96.24-16.3L81.74-15.7Q81.99-10.75 84.49-8.28 86.99-5.8 90.69-5.8L90.69-5.8Q94.24-5.8 97.59-8.1L97.59-8.1Q97.69-8 97.97-7.45 98.24-6.9 98.24-6.5L98.24-6.5Q98.24-6.15 98.04-5.95 97.84-5.75 97.69-5.65L97.69-5.65Q96.04-4.45 93.97-3.85 91.89-3.25 89.74-3.25L89.74-3.25Q84.69-3.25 81.77-6.38 78.84-9.5 78.74-14.85L78.74-14.85Q78.69-18.9 80.17-21.8 81.64-24.7 84.14-26.25 86.64-27.8 89.74-27.75L89.74-27.75Q92.79-27.75 94.64-26.45 96.49-25.15 97.34-23.15 98.19-21.15 98.24-18.85L98.24-18.85Q98.29-17.5 97.84-16.95 97.39-16.4 96.24-16.3L96.24-16.3ZM89.14-25.55L89.14-25.55Q86.09-25.55 84.12-23.45 82.14-21.35 81.79-17.95L81.79-17.95 95.19-18.7Q95.44-22 93.84-23.78 92.24-25.55 89.14-25.55ZM112.44-4L103.09-4Q102.59-4 102.59-4.5L102.59-4.5Q102.59-4.7 102.64-5.08 102.69-5.45 102.89-5.75L102.89-5.75Q104.64-5.95 105.24-6.6 105.84-7.25 105.94-8.5L105.94-8.5Q105.99-9.15 106.04-10.55 106.09-11.95 106.12-13.78 106.14-15.6 106.14-17.4L106.14-17.4Q106.14-19.1 106.12-20.48 106.09-21.85 106.04-22.5L106.04-22.5Q105.99-23.5 105.67-23.98 105.34-24.45 104.49-24.5L104.49-24.5 102.59-24.7Q102.24-24.7 102.24-25.1L102.24-25.1Q102.24-25.85 102.74-26.45L102.74-26.45Q103.54-26.7 104.74-26.85 105.94-27 106.84-27L106.84-27Q108.89-27 108.84-24.75L108.84-24.75Q108.79-23.8 108.79-22.45L108.79-22.45Q109.64-24.75 111.27-26.25 112.89-27.75 115.19-27.75L115.19-27.75Q116.19-27.75 117.09-27.5 117.99-27.25 118.34-26.85L118.34-26.85Q118.49-26.7 118.49-26.4L118.49-26.4Q118.49-25.65 118.12-24.83 117.74-24 117.39-23.75L117.39-23.75Q116.44-24.2 115.47-24.48 114.49-24.75 113.64-24.75L113.64-24.75Q111.29-24.75 110.07-22.3 108.84-19.85 108.74-15.85L108.74-15.85Q108.74-15.45 108.74-15.08 108.74-14.7 108.74-14.3L108.74-14.3Q108.74-12.05 108.77-10.5 108.79-8.95 108.84-7.65L108.84-7.65Q108.94-6.35 109.94-6.2L109.94-6.2Q110.19-6.2 110.87-6.15 111.54-6.1 112.27-6.05 112.99-6 113.24-6L113.24-6Q113.24-5.75 113.22-5.35 113.19-4.95 113.09-4.7L113.09-4.7Q112.94-4.2 112.74-4.1 112.54-4 112.44-4L112.44-4ZM140.39 5.75L140.39 5.75Q138.89 5.75 136.99 4.85L136.99 4.85Q136.89 4.45 137.09 3.75 137.29 3.05 137.44 2.75L137.44 2.75Q137.79 2.8 138.11 2.83 138.44 2.85 138.79 2.85L138.79 2.85Q141.44 2.85 143.31 1.03 145.19-0.8 146.64-4.3L146.64-4.3 138.64-22.65Q137.84-24.3 137.01-24.75 136.19-25.2 134.74-25.25L134.74-25.25Q134.74-25.5 134.79-25.88 134.84-26.25 134.89-26.5L134.89-26.5Q135.04-27 135.59-27L135.59-27 143.69-27Q144.19-27 144.19-26.5L144.19-26.5Q144.19-26.3 144.14-25.93 144.09-25.55 143.89-25.25L143.89-25.25Q142.74-25.2 142.11-25.03 141.49-24.85 141.49-24.15L141.49-24.15Q141.49-23.75 141.69-23.2L141.69-23.2 147.99-7.9 153.49-22.75Q153.79-23.65 153.79-24.15L153.79-24.15Q153.79-24.7 153.24-24.95 152.69-25.2 151.34-25.25L151.34-25.25Q151.34-25.5 151.36-25.83 151.39-26.15 151.44-26.4L151.44-26.4Q151.54-26.8 151.79-26.9 152.04-27 152.09-27L152.09-27 159.49-27Q159.89-27 159.94-26.8 159.99-26.6 159.99-26.4L159.99-26.4Q159.99-26.35 159.99-26.3L159.99-26.3Q159.99-26.1 159.94-25.8 159.89-25.5 159.74-25.25L159.74-25.25Q158.14-25.2 157.26-24.5 156.39-23.8 155.69-22.05L155.69-22.05 149.09-4.85Q148.14-1.8 146.89 0.6 145.64 3 144.04 4.38 142.44 5.75 140.39 5.75ZM171.58-3.25L171.58-3.25Q168.43-3.25 166.56-5.15 164.68-7.05 164.68-11.1L164.68-11.1 164.73-22.75Q164.73-23.75 164.56-24.23 164.38-24.7 163.53-24.75L163.53-24.75 161.58-24.95Q161.23-24.95 161.23-25.35L161.23-25.35Q161.23-26.1 161.73-26.7L161.73-26.7Q162.53-26.95 163.86-27.1 165.18-27.25 166.08-27.25L166.08-27.25Q167.18-27.25 167.51-26.73 167.83-26.2 167.73-25L167.73-25Q167.63-23.65 167.53-21.18 167.43-18.7 167.43-16.05L167.43-16.05Q167.43-14.9 167.46-13.73 167.48-12.55 167.53-11.4L167.53-11.4Q167.73-8.65 169.08-7.28 170.43-5.9 172.58-5.85L172.58-5.85Q174.43-5.8 176.38-6.88 178.33-7.95 179.53-9.7L179.53-9.7Q179.73-12.85 179.81-16.35 179.88-19.85 179.88-22.6L179.88-22.6Q179.88-23.6 179.63-24.08 179.38-24.55 178.53-24.6L178.53-24.6 176.83-24.65Q176.48-24.65 176.48-25.05L176.48-25.05Q176.48-25.8 176.98-26.4L176.98-26.4Q177.83-26.65 179.06-26.88 180.28-27.1 181.23-27.1L181.23-27.1Q182.98-27.1 182.83-25L182.83-25Q182.73-23.45 182.63-21.18 182.53-18.9 182.46-16.35 182.38-13.8 182.33-11.48 182.28-9.15 182.28-7.55L182.28-7.55Q182.23-6.7 182.58-6.4 182.93-6.1 183.53-6.15L183.53-6.15 185.93-6.3Q186.23-6.3 186.23-5.95L186.23-5.95Q186.23-5.7 186.11-5.2 185.98-4.7 185.73-4.45L185.73-4.45Q185.08-4.1 183.73-3.78 182.38-3.45 181.53-3.5L181.53-3.5Q180.68-3.55 180.13-4.58 179.58-5.6 179.48-7L179.48-7Q177.98-5.3 175.88-4.28 173.78-3.25 171.58-3.25ZM169.38-32.75L169.38-32.75Q168.28-32.75 167.51-33.5 166.73-34.25 166.73-35.3L166.73-35.3Q166.73-36.45 167.51-37.23 168.28-38 169.38-38L169.38-38Q170.53-38 171.26-37.23 171.98-36.45 171.98-35.3L171.98-35.3Q171.98-34.25 171.26-33.5 170.53-32.75 169.38-32.75ZM178.13-32.75L178.13-32.75Q177.03-32.75 176.26-33.5 175.48-34.25 175.48-35.3L175.48-35.3Q175.48-36.45 176.26-37.23 177.03-38 178.13-38L178.13-38Q179.28-38 180.01-37.23 180.73-36.45 180.73-35.3L180.73-35.3Q180.73-34.25 180.01-33.5 179.28-32.75 178.13-32.75ZM198.83-4L188.73-4 188.73-5.7Q192.53-10.45 196.23-15.28 199.93-20.1 203.23-25L203.23-25 193.93-24.9Q192.98-24.9 192.51-24.48 192.03-24.05 191.78-23.2L191.78-23.2 191.23-21.4Q191.08-20.9 190.53-20.9L190.53-20.9Q189.88-20.9 189.28-21.15L189.28-21.15Q189.38-23.05 189.71-24.65 190.03-26.25 190.33-26.8L190.33-26.8Q190.43-27.05 190.71-27.1 190.98-27.15 191.23-27.15L191.23-27.15Q192.33-27.1 193.68-27.05 195.03-27 196.28-27L196.28-27 207.18-27 207.18-25.45 192.83-6.15 203.03-6.25Q204.93-6.3 205.48-8L205.48-8 206.38-10.8Q206.48-11.15 206.88-11.15L206.88-11.15Q207.18-11.15 207.61-11.05 208.03-10.95 208.23-10.75L208.23-10.75Q208.13-8.9 207.86-7.18 207.58-5.45 207.28-4.5L207.28-4.5Q207.08-3.9 206.43-3.9L206.43-3.9Q205.08-3.9 202.86-3.95 200.63-4 198.83-4L198.83-4ZM220.93-4L211.23-4Q210.73-4 210.73-4.5L210.73-4.5Q210.73-4.7 210.78-5.08 210.83-5.45 211.03-5.75L211.03-5.75Q212.73-5.9 213.7-6.6 214.68-7.3 214.78-8.95L214.78-8.95Q214.88-10.1 214.93-12.58 214.98-15.05 215.05-18.25 215.13-21.45 215.15-24.7 215.18-27.95 215.18-30.6L215.18-30.6Q215.18-32.45 215.15-33.83 215.13-35.2 215.08-35.75L215.08-35.75Q215.03-36.65 214.7-36.98 214.38-37.3 213.58-37.4L213.58-37.4 211.53-37.6Q211.18-37.6 211.18-38L211.18-38Q211.18-38.3 211.33-38.7 211.48-39.1 211.68-39.35L211.68-39.35Q212.63-39.65 213.88-39.83 215.13-40 216.08-40L216.08-40Q217.23-40 217.9-39.68 218.58-39.35 218.38-38.05L218.38-38.05Q218.18-36.7 218.05-34.18 217.93-31.65 217.85-28.5 217.78-25.35 217.75-22.05 217.73-18.75 217.73-15.75L217.73-15.75Q217.73-13.15 217.75-11.08 217.78-9 217.83-7.85L217.83-7.85Q217.88-6.95 218.25-6.58 218.63-6.2 219.23-6.1L219.23-6.1Q219.63-6.05 220.43-6.03 221.23-6 221.73-6L221.73-6Q221.73-5.75 221.7-5.35 221.68-4.95 221.58-4.7L221.58-4.7Q221.43-4.2 221.23-4.1 221.03-4 220.93-4L220.93-4ZM242.23-16.3L227.73-15.7Q227.98-10.75 230.48-8.28 232.98-5.8 236.68-5.8L236.68-5.8Q240.23-5.8 243.58-8.1L243.58-8.1Q243.68-8 243.95-7.45 244.23-6.9 244.23-6.5L244.23-6.5Q244.23-6.15 244.03-5.95 243.83-5.75 243.68-5.65L243.68-5.65Q242.03-4.45 239.95-3.85 237.88-3.25 235.73-3.25L235.73-3.25Q230.68-3.25 227.75-6.38 224.83-9.5 224.73-14.85L224.73-14.85Q224.68-18.9 226.15-21.8 227.63-24.7 230.13-26.25 232.63-27.8 235.73-27.75L235.73-27.75Q238.78-27.75 240.63-26.45 242.48-25.15 243.33-23.15 244.18-21.15 244.23-18.85L244.23-18.85Q244.28-17.5 243.83-16.95 243.38-16.4 242.23-16.3L242.23-16.3ZM235.13-25.55L235.13-25.55Q232.08-25.55 230.1-23.45 228.13-21.35 227.78-17.95L227.78-17.95 241.18-18.7Q241.43-22 239.83-23.78 238.23-25.55 235.13-25.55ZM258.42-4L249.07-4Q248.57-4 248.57-4.5L248.57-4.5Q248.57-4.7 248.62-5.08 248.67-5.45 248.87-5.75L248.87-5.75Q250.62-5.95 251.22-6.6 251.82-7.25 251.92-8.5L251.92-8.5Q251.97-9.15 252.02-10.55 252.07-11.95 252.1-13.78 252.12-15.6 252.12-17.4L252.12-17.4Q252.12-19.1 252.1-20.48 252.07-21.85 252.02-22.5L252.02-22.5Q251.97-23.5 251.65-23.98 251.32-24.45 250.47-24.5L250.47-24.5 248.57-24.7Q248.22-24.7 248.22-25.1L248.22-25.1Q248.22-25.85 248.72-26.45L248.72-26.45Q249.52-26.7 250.72-26.85 251.92-27 252.82-27L252.82-27Q254.87-27 254.82-24.75L254.82-24.75Q254.77-23.8 254.77-22.45L254.77-22.45Q255.62-24.75 257.25-26.25 258.87-27.75 261.17-27.75L261.17-27.75Q262.17-27.75 263.07-27.5 263.97-27.25 264.32-26.85L264.32-26.85Q264.47-26.7 264.47-26.4L264.47-26.4Q264.47-25.65 264.1-24.83 263.72-24 263.37-23.75L263.37-23.75Q262.42-24.2 261.45-24.48 260.47-24.75 259.62-24.75L259.62-24.75Q257.27-24.75 256.05-22.3 254.82-19.85 254.72-15.85L254.72-15.85Q254.72-15.45 254.72-15.08 254.72-14.7 254.72-14.3L254.72-14.3Q254.72-12.05 254.75-10.5 254.77-8.95 254.82-7.65L254.82-7.65Q254.92-6.35 255.92-6.2L255.92-6.2Q256.17-6.2 256.85-6.15 257.52-6.1 258.25-6.05 258.97-6 259.22-6L259.22-6Q259.22-5.75 259.2-5.35 259.17-4.95 259.07-4.7L259.07-4.7Q258.92-4.2 258.72-4.1 258.52-4 258.42-4L258.42-4Z" opacity="1" transform="matrix(1,0,0,1,0,0)" fill="#3c3c3c" class="slogan-text-1" data-fill-palette-color="secondary" id="text-1"></path></svg></g></svg></g></svg></g></svg></g><g transform="matrix(1,0,0,1,118.53939790021066,0)"><svg viewBox="0 0 158.44120419957866 145.93296483412948" height="145.93296483412948" width="158.44120419957866"><g><svg xmlns="http://www.w3.org/2000/svg" xmlns:xlink="http://www.w3.org/1999/xlink" version="1.1" x="0" y="0" viewBox="12 14.99986724776904 76 70.00013275223097" enable-background="new 0 0 100 100" xml:space="preserve" height="145.93296483412948" width="158.44120419957866" class="icon-icon-0" data-fill-palette-color="accent" id="icon-0"><path fill="#398378" d="M44 40V64C44 70.63 38.63 76 32 76S20 70.63 20 64C20 60.63 21.39 57.58 23.63 55.39 16.92 53.5 12 47.32 12 40 12 31.16 19.16 24 28 24S44 31.16 44 40" data-fill-palette-color="accent"></path><path fill="#398378" d="M76.37 55.39C78.61 57.58 80 60.63 80 64 80 70.63 74.63 76 68 76S56 70.63 56 64V40C56 31.16 63.16 24 72 24S88 31.16 88 40C88 47.32 83.08 53.5 76.37 55.39" data-fill-palette-color="accent"></path><path fill="#398378" d="M62.122 20.118L53.001 29.239V82C53.001 83.66 51.66 85 50 85 48.339 85 47 83.66 47 82V29.239L37.878 20.118A3 3 0 0 1 42.119 15.878L50 23.758 57.882 15.878A2.998 2.998 0 1 1 62.122 20.118" data-fill-palette-color="accent"></path></svg></g></svg></g><g></g></svg></g><defs></defs></svg><rect width="368.98957842064425" height="247.2" fill="none" stroke="none" visibility="hidden"></rect></g></svg></g></svg>